<mxfile host="65bd71144e">
    <diagram id="Lh9lnLrTNhCuEQJ-sLi4" name="ページ1">
        <mxGraphModel dx="1492" dy="783" grid="1" gridSize="10" guides="1" tooltips="1" connect="1" arrows="1" fold="1" page="1" pageScale="1" pageWidth="827" pageHeight="1169" math="0" shadow="0">
            <root>
                <mxCell id="0"/>
                <mxCell id="1" parent="0"/>
                <mxCell id="3" value="ブラウザ" style="text;html=1;align=center;verticalAlign=middle;resizable=0;points=[];autosize=1;strokeColor=none;fillColor=none;" vertex="1" parent="1">
                    <mxGeometry x="10" y="240" width="70" height="30" as="geometry"/>
                </mxCell>
                <mxCell id="4" value="サーバー" style="text;html=1;align=center;verticalAlign=middle;resizable=0;points=[];autosize=1;strokeColor=none;fillColor=none;" vertex="1" parent="1">
                    <mxGeometry x="240" y="240" width="70" height="30" as="geometry"/>
                </mxCell>
                <mxCell id="5" value="セッションストレージ" style="text;html=1;align=center;verticalAlign=middle;resizable=0;points=[];autosize=1;strokeColor=none;fillColor=none;" vertex="1" parent="1">
                    <mxGeometry x="450" y="240" width="140" height="30" as="geometry"/>
                </mxCell>
                <mxCell id="6" value="メール" style="text;html=1;align=center;verticalAlign=middle;resizable=0;points=[];autosize=1;strokeColor=none;fillColor=none;" vertex="1" parent="1">
                    <mxGeometry x="730" y="240" width="60" height="30" as="geometry"/>
                </mxCell>
                <mxCell id="8" value="" style="endArrow=none;html=1;" edge="1" parent="1">
                    <mxGeometry width="50" height="50" relative="1" as="geometry">
                        <mxPoint x="40" y="1000" as="sourcePoint"/>
                        <mxPoint x="40" y="280" as="targetPoint"/>
                    </mxGeometry>
                </mxCell>
                <mxCell id="9" value="" style="endArrow=none;html=1;" edge="1" parent="1">
                    <mxGeometry width="50" height="50" relative="1" as="geometry">
                        <mxPoint x="280" y="1000" as="sourcePoint"/>
                        <mxPoint x="280" y="280" as="targetPoint"/>
                    </mxGeometry>
                </mxCell>
                <mxCell id="10" value="" style="endArrow=none;html=1;" edge="1" parent="1">
                    <mxGeometry width="50" height="50" relative="1" as="geometry">
                        <mxPoint x="520" y="990" as="sourcePoint"/>
                        <mxPoint x="520" y="270" as="targetPoint"/>
                    </mxGeometry>
                </mxCell>
                <mxCell id="11" value="" style="endArrow=none;html=1;" edge="1" parent="1">
                    <mxGeometry width="50" height="50" relative="1" as="geometry">
                        <mxPoint x="760" y="1000" as="sourcePoint"/>
                        <mxPoint x="760" y="280" as="targetPoint"/>
                    </mxGeometry>
                </mxCell>
                <mxCell id="14" value="メールアドレス送信&lt;br&gt;dev@example.com" style="endArrow=classic;html=1;" edge="1" parent="1">
                    <mxGeometry width="50" height="50" relative="1" as="geometry">
                        <mxPoint x="40" y="300" as="sourcePoint"/>
                        <mxPoint x="280" y="300" as="targetPoint"/>
                    </mxGeometry>
                </mxCell>
                <mxCell id="15" value="コールバックURL&lt;br&gt;&lt;span style=&quot;font-size: 11px;&quot;&gt;/api/auth/email-link/callback&lt;/span&gt;" style="endArrow=classic;html=1;" edge="1" parent="1">
                    <mxGeometry width="50" height="50" relative="1" as="geometry">
                        <mxPoint x="280" y="320" as="sourcePoint"/>
                        <mxPoint x="760" y="320" as="targetPoint"/>
                    </mxGeometry>
                </mxCell>
                <mxCell id="16" value="コールバックURL、アドレス&lt;br&gt;auth:magiclink:&amp;nbsp;/api/auth/email-link/callback&lt;br&gt;&lt;span style=&quot;font-size: 11px;&quot;&gt;auth:email:&amp;nbsp;&lt;/span&gt;dev@example.com" style="endArrow=classic;html=1;" edge="1" parent="1">
                    <mxGeometry width="50" height="50" relative="1" as="geometry">
                        <mxPoint x="280" y="380" as="sourcePoint"/>
                        <mxPoint x="520" y="380" as="targetPoint"/>
                    </mxGeometry>
                </mxCell>
                <mxCell id="17" value="" style="endArrow=classic;html=1;" edge="1" parent="1">
                    <mxGeometry width="50" height="50" relative="1" as="geometry">
                        <mxPoint x="280" y="420" as="sourcePoint"/>
                        <mxPoint x="40" y="420" as="targetPoint"/>
                    </mxGeometry>
                </mxCell>
                <mxCell id="18" value="コールバックURL、アドレス&lt;br&gt;Coolie" style="edgeLabel;html=1;align=center;verticalAlign=middle;resizable=0;points=[];" vertex="1" connectable="0" parent="17">
                    <mxGeometry x="0.0482" y="-3" relative="1" as="geometry">
                        <mxPoint as="offset"/>
                    </mxGeometry>
                </mxCell>
                <mxCell id="19" value="" style="endArrow=classic;html=1;" edge="1" parent="1">
                    <mxGeometry width="50" height="50" relative="1" as="geometry">
                        <mxPoint x="760" y="480" as="sourcePoint"/>
                        <mxPoint x="40" y="480" as="targetPoint"/>
                    </mxGeometry>
                </mxCell>
                <mxCell id="22" value="" style="endArrow=classic;html=1;" edge="1" parent="1">
                    <mxGeometry width="50" height="50" relative="1" as="geometry">
                        <mxPoint x="40" y="520" as="sourcePoint"/>
                        <mxPoint x="280" y="520" as="targetPoint"/>
                    </mxGeometry>
                </mxCell>
                <mxCell id="23" value="/api/auth/email-link/callback" style="edgeLabel;html=1;align=center;verticalAlign=middle;resizable=0;points=[];" vertex="1" connectable="0" parent="22">
                    <mxGeometry x="0.0418" y="3" relative="1" as="geometry">
                        <mxPoint as="offset"/>
                    </mxGeometry>
                </mxCell>
                <mxCell id="24" value="DB" style="text;html=1;align=center;verticalAlign=middle;resizable=0;points=[];autosize=1;strokeColor=none;fillColor=none;" vertex="1" parent="1">
                    <mxGeometry x="980" y="240" width="40" height="30" as="geometry"/>
                </mxCell>
                <mxCell id="25" value="ユーザー作成&lt;br&gt;dev@example.com" style="endArrow=classic;html=1;" edge="1" parent="1">
                    <mxGeometry width="50" height="50" relative="1" as="geometry">
                        <mxPoint x="280" y="540" as="sourcePoint"/>
                        <mxPoint x="1000" y="540" as="targetPoint"/>
                    </mxGeometry>
                </mxCell>
                <mxCell id="26" value="" style="endArrow=none;html=1;" edge="1" parent="1">
                    <mxGeometry width="50" height="50" relative="1" as="geometry">
                        <mxPoint x="1000" y="1000" as="sourcePoint"/>
                        <mxPoint x="1000" y="280" as="targetPoint"/>
                    </mxGeometry>
                </mxCell>
                <mxCell id="28" value="セッション削除&lt;br&gt;コールバックURL、アドレス&lt;br&gt;auth:magiclink&lt;br&gt;&lt;span style=&quot;font-size: 11px;&quot;&gt;auth:email&lt;/span&gt;" style="endArrow=classic;html=1;" edge="1" parent="1">
                    <mxGeometry width="50" height="50" relative="1" as="geometry">
                        <mxPoint x="280" y="640" as="sourcePoint"/>
                        <mxPoint x="520" y="640" as="targetPoint"/>
                    </mxGeometry>
                </mxCell>
                <mxCell id="29" value="" style="endArrow=classic;html=1;" edge="1" parent="1">
                    <mxGeometry width="50" height="50" relative="1" as="geometry">
                        <mxPoint x="280" y="700" as="sourcePoint"/>
                        <mxPoint x="520" y="700" as="targetPoint"/>
                    </mxGeometry>
                </mxCell>
                <mxCell id="31" value="ユーザーセッション" style="edgeLabel;html=1;align=center;verticalAlign=middle;resizable=0;points=[];" vertex="1" connectable="0" parent="29">
                    <mxGeometry x="0.0084" y="1" relative="1" as="geometry">
                        <mxPoint as="offset"/>
                    </mxGeometry>
                </mxCell>
                <mxCell id="30" value="ユーザー" style="endArrow=classic;html=1;" edge="1" parent="1">
                    <mxGeometry width="50" height="50" relative="1" as="geometry">
                        <mxPoint x="1000" y="580" as="sourcePoint"/>
                        <mxPoint x="280" y="580" as="targetPoint"/>
                    </mxGeometry>
                </mxCell>
                <mxCell id="32" value="ユーザーセッションCookie" style="endArrow=classic;html=1;" edge="1" parent="1">
                    <mxGeometry width="50" height="50" relative="1" as="geometry">
                        <mxPoint x="280" y="720" as="sourcePoint"/>
                        <mxPoint x="40" y="720" as="targetPoint"/>
                    </mxGeometry>
                </mxCell>
            </root>
        </mxGraphModel>
    </diagram>
</mxfile>